<svg xmlns="http://www.w3.org/2000/svg" id="Layer_1" data-name="Layer 1" viewBox="44.97 86.69 1510.07 226.59">
  <defs>
    <style>
      .cls-1 {
        fill: #d9272e;
      }

      .cls-1, .cls-2, .cls-3 {
        stroke-width: 0px;
      }

      .cls-2 {
        fill: #fff;
      }

      .cls-3 {
        fill: #001689;
      }
    </style>
  </defs>
  <g>
    <g>
      <path class="cls-2" d="m312.18,88.5c-144.93,0-262.42,43.66-262.42,97.52s117.49,97.52,262.42,97.52,262.42-43.66,262.42-97.52-117.49-97.52-262.42-97.52"/>
      <path class="cls-3" d="m538.3,158.99c-29.79-31.37-121.31-54.95-231.05-54.95-135.56,0-241.2,35.79-241.2,76.72,0,11.39,7.95,19.2,24.2,26.08,17.94,7.58,37.64,11.87,56.51,16.52-44.91-34.98-25.14-101.43,168.25-108.86,125.12-4.81,203.45,32.01,223.29,44.49m-247.46-5.96l13.1,70.2,24.26-.23,30.66-46.83,10.35,46.45,23.49-.23,40.21-68.01-20.47-.19-28.5,50.11-11.8-50.48-17.25-.17-33.03,50.82-8.31-51.22-22.72-.21Z"/>
      <path class="cls-3" d="m220.44,193.82l27.58.03c-5.01,13.32-15.23,17.73-28.97,17.82-19.95.12-27.9-13.43-24.22-26.88,3.43-12.56,17.11-25.46,36.21-25.35,10.63.06,18.09,4.35,21.07,11.48l22.95-6.33c-5.76-11.07-18.89-17.03-38.52-17.22-33.32-.34-60.12,15.1-66.87,38.51-6.4,22.22,10.69,38.47,44.86,38.12,17.78-.18,34.22-4.91,46.71-15.19,10.12-8.38,13.62-16.55,16.27-26.09l-49.51-.06-7.56,11.16Z"/>
      <path class="cls-3" d="m85.59,219.45c29.64,30.1,118.81,52.02,225.4,50.94,132.18-1.35,234.71-37.29,234.31-77.12-.11-11.08-7.91-18.59-23.82-25.14-17.48-7.19-36.63-11.15-54.98-15.48,43.96,33.77,24.93,98.58-163.16,107.72-121.15,5.89-197.67-28.73-217.74-40.93"/>
      <path class="cls-1" d="m311.04,274.81c-26.6.27-205.33-4.61-235.39-60.86-1.35-2.52-.27-5.78,3.53-3.96,2.17,1.03,4.19,2.67,6.16,4.03,13.82,9.51,90.97,48.1,217.79,41.94,207.98-10.11,195.28-82.11,150.36-106.45l1.56-4.09c22.06,5.21,47.16,10.01,68.12,18.62,16.26,6.69,26.42,15.26,26.56,29.18.46,45.16-108.77,80.27-238.69,81.59m-92.01-67.57c10.14-.06,18.01-3.22,21.91-8.94l-29.51.03,13.14-20.1,58.66.07c-3.76,14.58-6.97,23.81-19.18,33.92-13.48,11.08-30.99,16.01-49.49,16.2-34.96.35-56.89-16.92-49.15-43.77,7.52-26.09,36.8-42.06,71.17-41.71,19.36.19,36.65,5.11,44.56,24.56l-31.99,8.82c-2.55-9.23-8.4-12.41-18.14-12.47-17.05-.1-29,11.43-31.91,22.09-2.86,10.45,2.74,21.38,19.93,21.28m221.6-57.22l-45.39,76.76-29.57.28-8.85-39.71-26.22,40.04-30.33.29-14.77-79.13,31.83.3,7.07,43.58,28.11-43.25,23.15.22,10.02,42.88,24.2-42.55,30.75.29Zm-379,30.74c0-46.26,112.32-81.15,245.63-81.15,27.24,0,210.55,6.86,240.78,64.84,1.33,2.55.22,5.82-3.59,3.95-2.2-1.08-4.26-2.78-6.26-4.19-14.09-9.91-92.84-50.29-222.99-45.29-213.37,8.2-201.35,82.21-155.38,107.73l-1.61,4.08c-22.44-5.54-48.4-10.82-69.67-19.82-16.6-7.02-26.9-15.91-26.9-30.15m250.55-94.05c-147.58,0-267.22,44.46-267.22,99.3s119.64,99.3,267.22,99.3,267.21-44.45,267.21-99.3-119.64-99.3-267.21-99.3"/>
    </g>
    <g>
      <path class="cls-3" d="m1301.45,199.46h21.74c-2.41,10.68-10.36,16.06-19.76,16.06-10.24,0-16.03-7.54-17.74-17.12-.66-3.73-.7-7.77-.11-11.81,2-14.11,11.55-29.22,25.81-29.22,8.73,0,14.19,5.9,15.91,14.73l21.91-9.57c-4.71-17.32-16.74-25.91-33.87-25.91-26.85,0-48,19.77-52.29,49.84-.6,4.2-.79,8.2-.6,11.96,1.14,22.4,15.66,36.85,38.05,36.85,13.92,0,26.97-5.52,36.95-18.17,4.81-6.13,7.78-12.27,9.82-18.71h.02c1.8-5.65,2.89-11.53,3.88-17.85h-37.9l-11.83,18.89Z"/>
      <g>
        <polygon class="cls-3" points="860.47 198.65 868.84 139.93 847.19 139.93 838.82 198.61 838.81 198.61 833.99 232.45 881.61 232.45 884.51 212.07 858.55 212.07 860.47 198.65"/>
        <path class="cls-3" d="m655.83,199.68h21.74c-2.41,10.68-10.36,16.06-19.76,16.06-10.24,0-16.03-7.54-17.73-17.12-.66-3.73-.7-7.77-.11-11.81,2-14.11,11.55-29.22,25.81-29.22,8.73,0,14.19,5.9,15.91,14.73l21.91-9.57c-4.71-17.32-16.74-25.91-33.87-25.91-26.85,0-48,19.77-52.29,49.84-.6,4.2-.79,8.2-.6,11.97,1.14,22.4,15.66,36.85,38.05,36.85,13.92,0,26.97-5.52,36.95-18.17,4.81-6.13,7.78-12.27,9.82-18.71h.02c1.8-5.65,2.89-11.53,3.88-17.85h-37.9l-11.83,18.89Z"/>
        <polygon class="cls-3" points="1380.69 198.61 1380.68 198.61 1375.86 232.45 1423.26 232.45 1426.16 212.07 1400.42 212.07 1402.33 198.65 1402.34 198.65 1402.7 196.14 1427.11 196.14 1430.02 175.78 1405.6 175.78 1407.81 160.3 1433.55 160.3 1436.45 139.93 1389.06 139.93 1380.69 198.61"/>
        <polygon class="cls-3" points="1533.39 139.93 1525.32 196.52 1493.51 139.93 1471.84 139.93 1463.49 198.61 1463.48 198.61 1458.66 232.45 1480.31 232.45 1485.13 198.65 1488.4 175.78 1501.23 198.65 1501.25 198.65 1520.2 232.45 1541.85 232.45 1546.66 198.65 1546.67 198.65 1555.04 139.93 1533.39 139.93"/>
        <path class="cls-3" d="m1225.37,198.61l-11.53-58.68h-23.65l-28.67,58.68h-.02l-16.54,33.84h22.99l8.03-16.08h29.83l3.12,16.08h23.08l-6.63-33.84h-.02Zm-40.8-.62l13.16-29.46,4.85,29.46h-18.01Z"/>
        <path class="cls-3" d="m954.61,139.93h-30.71l-8.37,58.68-4.83,33.84h30.71c19.24,0,37.8-14.05,45.61-33.8h.02c1.55-3.94,2.67-8.11,3.3-12.44,3.71-26.02-12.53-46.28-35.72-46.28Zm13.18,46.28c-.7,4.86-2.08,8.98-3.99,12.41h-.03c-5.19,9.28-14.21,13.46-23.64,13.46h-4.86l1.91-13.42h0l5.46-38.34h5.08c13.92,0,22.42,9.33,20.06,25.9Z"/>
        <polygon class="cls-3" points="1124.51 139.93 1100.74 198.61 1100.73 198.61 1100.29 199.68 1100.16 198.61 1100.15 198.61 1092.24 139.93 1075.02 139.93 1049.51 198.61 1049.49 198.61 1049.03 199.68 1048.92 198.61 1048.92 198.61 1042.87 139.93 1020.32 139.93 1027.72 198.65 1031.98 232.45 1053.97 232.45 1069.09 198.65 1069.11 198.65 1077.97 178.84 1080.62 198.65 1085.13 232.45 1107.23 232.45 1121.78 198.65 1121.79 198.65 1147.05 139.93 1124.51 139.93"/>
      </g>
      <path class="cls-3" d="m777.91,136.53s-.06,0-.09,0c-.03,0-.05,0-.07,0-26.85,0-48,19.77-52.29,49.84-.6,4.2-.79,8.2-.6,11.96,1.14,22.4,15.66,36.85,38.05,36.85.03,0,.06,0,.09,0,.03,0,.05,0,.07,0,26.85,0,48-19.77,52.29-49.84.6-4.2.79-8.2.6-11.96-1.14-22.4-15.66-36.85-38.05-36.85Zm14.92,48.7c-2,14.11-12.73,30.17-26.99,30.17-.03,0-.04.01-.07.01-10.21-.03-15.98-7.56-17.68-17.12-.66-3.73-.7-7.77-.11-11.81,1.83-12.89,11.24-27.46,23.72-29.89,1.07-.17,2.16-.3,3.29-.3,10.24,0,16.03,7.54,17.74,17.12.66,3.73.7,7.77.11,11.81Z"/>
    </g>
  </g>
  <g>
    <polygon class="cls-3" points="841.84 273.71 834.42 273.71 820.1 288.39 820.1 273.71 814.54 273.71 814.54 310.51 820.1 310.51 820.1 295.28 821.24 294.14 834.5 310.51 841.93 310.51 825.2 290.37 841.84 273.71"/>
    <polygon class="cls-3" points="854.7 310.51 875.01 310.51 875.01 305.29 860.26 305.29 860.26 292.99 874.58 292.99 874.58 287.77 860.26 287.77 860.26 278.93 875.01 278.93 875.01 273.71 854.7 273.71 854.7 310.51"/>
    <polygon class="cls-3" points="890.12 310.51 910.42 310.51 910.42 305.29 895.67 305.29 895.67 292.99 910 292.99 910 287.77 895.67 287.77 895.67 278.93 910.42 278.93 910.42 273.71 890.12 273.71 890.12 310.51"/>
    <path class="cls-3" d="m938.81,274.35c-1.57-.43-3.9-.64-6.98-.64h-6.29v36.8h5.55v-14.95h2.57c3.83,0,6.87-.99,9.13-2.96,2.26-1.97,3.38-4.64,3.38-8.01,0-3.15-1.06-5.75-3.17-7.82-1.21-1.19-2.61-2-4.2-2.43Zm-5.65,16.07h-2.07v-11.58h1.84c5.26,0,7.89,1.9,7.89,5.7s-2.55,5.89-7.65,5.89Z"/>
    <path class="cls-3" d="m1000.08,273.02c-5.31,0-9.85,1.86-13.63,5.58-3.8,3.72-5.7,8.17-5.7,13.35,0,5.9,2.08,10.66,6.25,14.3,3.78,3.29,8.05,4.93,12.8,4.93,5.37,0,9.96-1.85,13.75-5.55,3.78-3.69,5.67-8.18,5.67-13.47s-1.88-9.77-5.65-13.52c-3.75-3.75-8.25-5.63-13.49-5.63Zm9.56,28.96c-2.65,2.67-5.91,4-9.77,4-3.56,0-6.7-1.31-9.42-3.93-2.73-2.62-4.1-5.97-4.1-10.04s1.32-7.14,3.96-9.77c2.64-2.67,5.87-4,9.7-4s7.07,1.33,9.68,4c2.62,2.65,3.93,5.94,3.93,9.87s-1.33,7.17-3.98,9.87Z"/>
    <polygon class="cls-3" points="1060.85 299.29 1034.01 271.21 1034.01 310.51 1039.57 310.51 1039.57 284.74 1066.41 312.75 1066.41 273.71 1060.85 273.71 1060.85 299.29"/>
    <path class="cls-3" d="m1122.41,274.8c-2.15-.73-5.07-1.1-8.77-1.1h-7.72v36.8h7.63c3.73,0,6.62-.34,8.65-1.02,2.18-.68,4.26-1.9,6.25-3.65,3.96-3.5,5.94-8.07,5.94-13.73s-1.9-10.19-5.7-13.66c-1.88-1.72-3.96-2.93-6.27-3.65Zm2.26,27.06c-1.33,1.21-2.83,2.09-4.48,2.65-1.65.52-3.73.79-6.22.79h-2.5v-26.36h2.5c4.74,0,8.32,1.12,10.75,3.36,2.7,2.51,4.05,5.78,4.05,9.82s-1.37,7.25-4.1,9.75Z"/>
    <path class="cls-3" d="m1167.55,291.23c1.49-1.88,2.24-4.12,2.24-6.72,0-3.34-1.19-6.02-3.58-8.06-2.16-1.83-5.67-2.74-10.54-2.74h-6.51v36.8h5.55v-15.07h1l10.51,15.07h6.79l-11.39-15.68c2.45-.52,4.42-1.72,5.91-3.6Zm-12.82-.62v-11.68h1.98c5.12,0,7.68,1.88,7.68,5.65,0,4.02-2.63,6.03-7.89,6.03h-1.76Z"/>
    <rect class="cls-3" x="1186.38" y="273.71" width="5.55" height="36.8"/>
    <polygon class="cls-3" points="1220.62 299.21 1210.44 273.71 1204.36 273.71 1220.5 313.28 1237.02 273.71 1230.94 273.71 1220.62 299.21"/>
    <rect class="cls-3" x="1249.41" y="273.71" width="5.55" height="36.8"/>
    <polygon class="cls-3" points="1298.46 299.29 1271.62 271.21 1271.62 310.51 1277.17 310.51 1277.17 284.74 1304.01 312.75 1304.01 273.71 1298.46 273.71 1298.46 299.29"/>
    <path class="cls-3" d="m1339.95,291.35v5.22h9.18c-.25,2.59-1.47,4.82-3.65,6.67-2.18,1.84-4.63,2.77-7.37,2.77-3.21,0-6.19-1.23-8.94-3.69-2.94-2.65-4.41-6.03-4.41-10.13s1.32-7.28,3.96-9.92c2.64-2.69,5.9-4.03,9.8-4.03,4.34,0,8.02,2.01,11.04,6.03l3.96-3.79c-2.3-2.64-4.65-4.54-7.03-5.72-2.49-1.18-5.18-1.76-8.06-1.76-5.36,0-9.9,1.87-13.63,5.6-3.73,3.72-5.6,8.25-5.6,13.59s1.84,9.71,5.51,13.44c3.67,3.72,8.08,5.58,13.23,5.58s9.62-1.92,13.04-5.77c1.51-1.72,2.58-3.56,3.22-5.53.65-2.13.98-4.58.98-7.34v-1.22h-15.21Z"/>
  </g>
</svg>